<svg width="430" height="161" viewBox="0 0 430 161" fill="none" xmlns="http://www.w3.org/2000/svg">
<path d="M464.335 7.20508C498.473 1.16103 526.312 -1.83571 545.604 2.66895C555.232 4.91708 562.688 9.02415 567.742 15.5166C572.798 22.0108 575.5 30.9532 575.5 42.9639C575.5 91.0009 535.605 134.633 470.778 166.284C405.985 197.919 316.438 217.5 217.5 217.5C118.562 217.5 29.0154 197.919 -35.7783 166.284C-100.605 134.633 -140.5 91.0009 -140.5 42.9639C-140.5 30.9381 -138.213 21.9847 -133.881 15.4873C-129.555 9.00052 -123.153 4.9063 -114.807 2.66504C-106.448 0.420591 -96.1529 0.0393778 -84.084 0.981445C-72.019 1.92322 -58.2126 4.18444 -42.8438 7.2041C18.6116 19.2789 104.939 43.4639 204 43.4639C303.055 43.4639 396.134 19.2798 464.335 7.20508Z" fill="#6148A8" fill-opacity="0.32" stroke="url(#paint0_linear_3_773)"/>
<defs>
<linearGradient id="paint0_linear_3_773" x1="209" y1="-10.4506" x2="207.722" y2="339.618" gradientUnits="userSpaceOnUse">
<stop stop-color="#B387F3"/>
<stop offset="1" stop-color="#FFF1F1" stop-opacity="0"/>
</linearGradient>
</defs>
</svg>
